<svg id="Camada_1" data-name="Camada 1" xmlns="http://www.w3.org/2000/svg" viewBox="0 0 132 140"><defs><style>.cls-1{fill:#ffd55f;}</style></defs><title>100GRAFICO</title><path d="M40.72,53.79v21H37.25V57.38L32.5,60.31,31,57.85l6.63-4.06ZM45,72.62v2.75H32V72.62Z"/><path d="M56.62,53.35a6.13,6.13,0,0,1,5.49,2.92Q64,59.19,64,64.55c0,3.58-.62,6.34-1.86,8.3a6.09,6.09,0,0,1-5.49,2.94,6.06,6.06,0,0,1-5.5-2.94c-1.24-2-1.86-4.72-1.86-8.3s.62-6.33,1.86-8.28A6.1,6.1,0,0,1,56.62,53.35Zm0,2.67a3.12,3.12,0,0,0-2.87,2c-.66,1.32-1,3.5-1,6.55A33.2,33.2,0,0,0,53,68.64a9,9,0,0,0,.68,2.64,3.07,3.07,0,0,0,1.19,1.41,3.46,3.46,0,0,0,1.79.43,2.89,2.89,0,0,0,2.11-.85A5.6,5.6,0,0,0,60,69.52a22.21,22.21,0,0,0,.45-5,27,27,0,0,0-.38-5.08,5,5,0,0,0-1.23-2.66A3.21,3.21,0,0,0,56.62,56Zm2.9.74.91,2.45L54,72.37l-1.16-2Z"/><path d="M75.39,53.35a6.13,6.13,0,0,1,5.49,2.92q1.86,2.92,1.86,8.28c0,3.58-.62,6.34-1.86,8.3a6.61,6.61,0,0,1-11,0c-1.24-2-1.86-4.72-1.86-8.3s.62-6.33,1.86-8.28A6.1,6.1,0,0,1,75.39,53.35Zm0,2.67a3.12,3.12,0,0,0-2.87,2c-.66,1.32-1,3.5-1,6.55a33.2,33.2,0,0,0,.21,4.09,9,9,0,0,0,.68,2.64,3.07,3.07,0,0,0,1.19,1.41,3.46,3.46,0,0,0,1.79.43,2.89,2.89,0,0,0,2.11-.85,5.6,5.6,0,0,0,1.3-2.75,22.21,22.21,0,0,0,.45-5,27,27,0,0,0-.38-5.08,5,5,0,0,0-1.23-2.66A3.21,3.21,0,0,0,75.39,56Zm2.9.74.91,2.45L72.76,72.37l-1.16-2Z"/><path d="M89.73,53.35a4.18,4.18,0,0,1,4,2.46,5.88,5.88,0,0,1,.53,2.51,6,6,0,0,1-.53,2.53,4.32,4.32,0,0,1-1.55,1.8,4.88,4.88,0,0,1-4.9,0,4.27,4.27,0,0,1-1.56-1.8,5.82,5.82,0,0,1-.54-2.53,5.72,5.72,0,0,1,.54-2.5A4.4,4.4,0,0,1,87.28,54,4.34,4.34,0,0,1,89.73,53.35Zm9.88-.2,2,1.09L88.41,76.11l-2-1.1Zm-9.88,2.3a1.54,1.54,0,0,0-1.35.72,4,4,0,0,0-.48,2.15,4.05,4.05,0,0,0,.48,2.15,1.52,1.52,0,0,0,1.35.78,1.53,1.53,0,0,0,1.35-.72,4,4,0,0,0,.48-2.21,3.86,3.86,0,0,0-.48-2.19A1.54,1.54,0,0,0,89.73,55.45ZM98.61,65.6a4.37,4.37,0,0,1,2.45.66,4.42,4.42,0,0,1,1.55,1.79,6.15,6.15,0,0,1,0,5,4.45,4.45,0,0,1-1.55,1.8,4.8,4.8,0,0,1-4.89,0,4.35,4.35,0,0,1-1.57-1.8,6.13,6.13,0,0,1,0-5,4.29,4.29,0,0,1,1.57-1.8A4.39,4.39,0,0,1,98.61,65.6Zm0,2.08a1.53,1.53,0,0,0-1.34.72,3.85,3.85,0,0,0-.49,2.17,4,4,0,0,0,.49,2.15,1.5,1.5,0,0,0,1.34.78,1.55,1.55,0,0,0,1.36-.73,4.16,4.16,0,0,0,.47-2.2,4,4,0,0,0-.47-2.2A1.56,1.56,0,0,0,98.61,67.68Z"/><path class="cls-1" d="M109.23,26.77c-10.88-9.29-18.78-16-43.37-17.93-1.75.15-3.26.26-4.47.35a39.18,39.18,0,0,0-9.88,1.56c-1.19.3-2.66.66-4.55,1.11l-.17.08C33.88,17.29,19.24,23.36,7.71,51.22l-.46,1.94c-2.4,9.61-5.39,21.57,4.2,44.76l1.05,1.71c5.12,8.5,11.5,19.09,34.62,28.66l2,.47c9.61,2.39,21.56,5.38,44.74-4.21,12.07-7.42,20.91-12.83,30.37-35.67.4-1.72.76-3.19,1-4.37a39,39,0,0,0,1.57-9.88c.09-1.22.2-2.73.35-4.67l-.77-9.57C122.89,45.84,121.33,41,109.23,26.77Zm-4.54,71.32-.1.14c-12.44,14.58-20.66,16.55-31.07,19-3.82.31-6.59.45-8.85.45-4.5,0-6.93-.59-11.48-1.69l-1.93-.47c-16.19-6.7-20.92-12.37-27.88-23.72l-.86-2c-2.75-6.59-3.5-8.37-4.39-19.68,1.51-19.29,7-25.71,14-33.85L33.52,35C39.44,30,40.68,28.9,51.1,24.59c28-6.74,49.36,4.14,60.31,30.6C116.54,76.5,111.86,86.4,104.69,98.09Z"/></svg>