<svg id="Camada_1" data-name="Camada 1" xmlns="http://www.w3.org/2000/svg" viewBox="0 0 190 32"><defs><style>.cls-1{fill:#ffc952;}</style></defs><title>4ESTRELAS</title><path class="cls-1" d="M8.74,28.54c.09-.5.16-1,.24-1.41l1-5.61c.11-.63.2-1.25.33-1.88a.36.36,0,0,0-.14-.37L4.32,13.61c-.19-.19-.4-.37-.64-.6l1.18-.19,4.41-.63,3.33-.49a.38.38,0,0,0,.34-.25l3.81-7.73a.6.6,0,0,1,.16-.26.6.6,0,0,1,.16.26c1.27,2.57,2.54,5.13,3.8,7.7a.45.45,0,0,0,.37.29l3.75.54,4.07.59,1,.15c0,.12-.11.18-.17.24l-6.16,6a.47.47,0,0,0-.17.49c.32,1.76.61,3.53.92,5.3.19,1.13.39,2.27.58,3.4,0,0,0,0,0,.1l-1.83-1-6-3.17a.53.53,0,0,0-.57,0l-7.58,4Z"/><path class="cls-1" d="M47.81,28.54c.08-.5.16-1,.24-1.41l1-5.61c.1-.63.2-1.25.32-1.88a.34.34,0,0,0-.14-.37l-5.8-5.66-.65-.6,1.18-.19,4.41-.63,3.34-.49a.37.37,0,0,0,.33-.25l3.81-7.73A.71.71,0,0,1,56,3.46a.52.52,0,0,1,.16.26c1.27,2.57,2.54,5.13,3.8,7.7a.46.46,0,0,0,.38.29l3.74.54,4.08.59,1,.15c0,.12-.11.18-.18.24l-6.16,6a.49.49,0,0,0-.16.49q.46,2.64.91,5.3c.2,1.13.39,2.27.59,3.4a.84.84,0,0,1,0,.1l-1.83-1-6-3.17a.53.53,0,0,0-.57,0l-7.57,4Z"/><path class="cls-1" d="M86.87,28.54c.09-.5.16-1,.24-1.41l1-5.61c.11-.63.2-1.25.33-1.88a.38.38,0,0,0-.14-.37l-5.81-5.66c-.19-.19-.4-.37-.64-.6L83,12.82l4.41-.63,3.33-.49a.38.38,0,0,0,.34-.25l3.81-7.73a.18.18,0,1,1,.32,0c1.27,2.57,2.54,5.13,3.8,7.7a.45.45,0,0,0,.37.29l3.75.54,4.07.59,1,.15c0,.12-.11.18-.17.24l-6.16,6a.47.47,0,0,0-.17.49c.32,1.76.61,3.53.92,5.3.19,1.13.39,2.27.58,3.4,0,0,0,0,0,.1l-1.83-1-6-3.17a.52.52,0,0,0-.56,0l-7.58,4Z"/><path class="cls-1" d="M125.94,28.54c.08-.5.16-1,.24-1.41q.48-2.8.95-5.61c.11-.63.21-1.25.33-1.88a.34.34,0,0,0-.14-.37l-5.8-5.66-.65-.6,1.18-.19,4.41-.63,3.34-.49a.37.37,0,0,0,.33-.25l3.81-7.73a.71.71,0,0,1,.16-.26.52.52,0,0,1,.16.26c1.27,2.57,2.54,5.13,3.8,7.7a.45.45,0,0,0,.37.29l3.75.54,4.08.59,1,.15c0,.12-.11.18-.18.24l-6.16,6a.49.49,0,0,0-.16.49q.47,2.64.91,5.3c.2,1.13.39,2.27.59,3.4a.84.84,0,0,1,0,.1l-1.83-1-6-3.17a.53.53,0,0,0-.57,0l-7.57,4Z"/><path d="M165,28.54c.09-.5.16-1,.24-1.41l1-5.61c.11-.63.2-1.25.33-1.88a.38.38,0,0,0-.14-.37l-5.81-5.66-.64-.6,1.18-.19,4.41-.63,3.33-.49a.39.39,0,0,0,.34-.25L173,3.72a.18.18,0,1,1,.32,0c1.27,2.57,2.54,5.13,3.8,7.7a.43.43,0,0,0,.37.29c1.25.17,2.5.35,3.74.54l4.08.59,1,.15c0,.12-.11.18-.18.24l-6.15,6a.47.47,0,0,0-.17.49c.32,1.76.61,3.53.92,5.3.19,1.13.39,2.27.58,3.4,0,0,0,0,0,.1l-1.83-1-6-3.17a.52.52,0,0,0-.56,0l-7.58,4Z"/></svg>