<svg id="Camada_1" data-name="Camada 1" xmlns="http://www.w3.org/2000/svg" viewBox="0 0 132 140"><defs><style>.cls-1{fill:#ffd55f;}</style></defs><title>50GRAFICO</title><path d="M53.41,53.79,53,56.42H44.67v6a6.87,6.87,0,0,1,1.79-.66,8.49,8.49,0,0,1,1.74-.18,5.84,5.84,0,0,1,3.07.81,5.65,5.65,0,0,1,2.12,2.35,8.19,8.19,0,0,1,.77,3.7,7.54,7.54,0,0,1-1,3.83,6.67,6.67,0,0,1-2.7,2.59,8.42,8.42,0,0,1-4.08.93A8.9,8.9,0,0,1,42.67,75,9.23,9.23,0,0,1,39.8,73l2.1-2a6.26,6.26,0,0,0,2,1.51,5.57,5.57,0,0,0,2.39.51,4.05,4.05,0,0,0,3.1-1.2,4.69,4.69,0,0,0,1.14-3.38,5.71,5.71,0,0,0-.47-2.53,2.84,2.84,0,0,0-1.26-1.34,3.89,3.89,0,0,0-1.79-.4,6.7,6.7,0,0,0-1.53.17,10.27,10.27,0,0,0-1.57.55H41.32V53.79Z"/><path d="M66,53.35a6.11,6.11,0,0,1,5.49,2.92q1.86,2.92,1.86,8.28c0,3.58-.62,6.34-1.86,8.3a6.61,6.61,0,0,1-11,0c-1.23-2-1.85-4.72-1.85-8.3s.62-6.33,1.85-8.28A6.11,6.11,0,0,1,66,53.35ZM66,56a3.11,3.11,0,0,0-2.86,2q-1,2-1,6.55a33.2,33.2,0,0,0,.21,4.09A9,9,0,0,0,63,71.28a3.14,3.14,0,0,0,1.2,1.41,3.43,3.43,0,0,0,1.78.43,2.87,2.87,0,0,0,2.11-.85,5.69,5.69,0,0,0,1.31-2.75,22.91,22.91,0,0,0,.44-5,26.19,26.19,0,0,0-.38-5.08,5,5,0,0,0-1.23-2.66A3.18,3.18,0,0,0,66,56Zm2.91.74.91,2.45L63.37,72.37l-1.16-2Z"/><path d="M80.34,53.35a4.18,4.18,0,0,1,4,2.46,5.74,5.74,0,0,1,.54,2.51,5.82,5.82,0,0,1-.54,2.53,4.32,4.32,0,0,1-1.55,1.8,4.86,4.86,0,0,1-4.89,0,4.23,4.23,0,0,1-1.57-1.8,5.82,5.82,0,0,1-.54-2.53,5.72,5.72,0,0,1,.54-2.5,4.26,4.26,0,0,1,4-2.47Zm9.89-.2,2,1.09L79,76.11,77,75Zm-9.89,2.3a1.53,1.53,0,0,0-1.34.72,3.87,3.87,0,0,0-.49,2.15A4,4,0,0,0,79,60.47a1.5,1.5,0,0,0,1.34.78,1.54,1.54,0,0,0,1.36-.72,4.15,4.15,0,0,0,.47-2.21,4,4,0,0,0-.47-2.19A1.55,1.55,0,0,0,80.34,55.45ZM89.23,65.6a4.16,4.16,0,0,1,4,2.45,6.15,6.15,0,0,1,0,5,4.42,4.42,0,0,1-1.54,1.8,4.81,4.81,0,0,1-4.9,0,4.4,4.4,0,0,1-1.56-1.8,6.13,6.13,0,0,1,0-5,4.33,4.33,0,0,1,1.56-1.8A4.42,4.42,0,0,1,89.23,65.6Zm0,2.08a1.54,1.54,0,0,0-1.35.72,3.94,3.94,0,0,0-.48,2.17,4.05,4.05,0,0,0,.48,2.15,1.52,1.52,0,0,0,1.35.78,1.54,1.54,0,0,0,1.35-.73,4.06,4.06,0,0,0,.48-2.2,3.9,3.9,0,0,0-.48-2.2A1.55,1.55,0,0,0,89.23,67.68Z"/><path class="cls-1" d="M94,31.26c10,8.53,12.44,11.87,17.41,23.88,3.94,16.33,1.47,31.59-6.9,43.11-8.16,11.24-21.1,18-37.46,19.49v13.37c16.71-1.37,25.52-3.61,42.18-17.83,1.23-1.45,2.21-2.57,3-3.48a39.94,39.94,0,0,0,5.88-8.09c.63-1,1.42-2.34,2.43-4,5.58-13.51,5.77-16.09,6.4-24.65l.23-3.14-.76-9.58c-.43-1.72-.77-3.19-1.05-4.38a39.48,39.48,0,0,0-3.09-9.51c-.48-1.13-1.06-2.52-1.81-4.31-7.71-12.57-15.68-25.57-45-32.61l-8.4-.65V22.25l.81.06C75.16,22.84,80.94,23.26,94,31.26Z"/><path d="M32.2,103.88C24.14,94.45,19.58,88.3,18.13,70.09,19.55,52,24.14,43,37.78,31.36l.14-.1c11.36-7,15.5-8.07,26.94-9V8.89C51.25,10,48.85,11,40.54,14.48l-2.45,1-1.83,1.14C27.48,22,25.9,23,16.39,34.09Q15,36.37,14,37.93a39.18,39.18,0,0,0-4.54,8.91C9,48,8.46,49.37,7.72,51.17,4.34,65.28,4.54,67.77,5.3,77l.21,2.62L6,81.75c2.39,10,2.82,11.83,10.46,24.3,10.35,12.1,14.14,15.36,30.63,22.19,1.73.4,3.2.76,4.39,1a38.88,38.88,0,0,0,9.87,1.57l3.48.26V117.75l-.63,0C56.54,117.16,47,116.48,32.2,103.88Z"/></svg>