<svg id="Camada_1" data-name="Camada 1" xmlns="http://www.w3.org/2000/svg" viewBox="0 0 132 140"><defs><style>.cls-1{fill:#ffd55f;}</style></defs><title>80GRAFICO</title><path d="M54,58.93a4.15,4.15,0,0,1-.91,2.69,9,9,0,0,1-2.69,2.12,8.29,8.29,0,0,1,3.3,2.41,5.33,5.33,0,0,1,1.16,3.4,5.72,5.72,0,0,1-.91,3.16A6.26,6.26,0,0,1,51.3,75a9.34,9.34,0,0,1-4.15.83A9.3,9.3,0,0,1,43,75a6,6,0,0,1-2.55-2.23,5.87,5.87,0,0,1-.86-3.11,5,5,0,0,1,1.14-3.31,8.34,8.34,0,0,1,3-2.22,7.29,7.29,0,0,1-2.51-2,4.84,4.84,0,0,1-.82-2.93,5.22,5.22,0,0,1,.58-2.53,5.34,5.34,0,0,1,1.55-1.79,6.71,6.71,0,0,1,2.17-1.09,8.52,8.52,0,0,1,2.46-.36,9.15,9.15,0,0,1,2.53.35,7.06,7.06,0,0,1,2.15,1,4.91,4.91,0,0,1,1.49,1.74A5.16,5.16,0,0,1,54,58.93ZM51.25,69.57a3.32,3.32,0,0,0-.62-2.1,4.65,4.65,0,0,0-1.77-1.31c-.78-.35-1.7-.72-2.77-1.09a6.75,6.75,0,0,0-1.44,1,4.61,4.61,0,0,0-1,1.45,4.73,4.73,0,0,0-.39,2,3.5,3.5,0,0,0,1,2.64,4.13,4.13,0,0,0,3,1,4.11,4.11,0,0,0,3-1A3.45,3.45,0,0,0,51.25,69.57ZM43.88,59.14a2.78,2.78,0,0,0,.49,1.72A3.66,3.66,0,0,0,45.78,62a19.72,19.72,0,0,0,2.23.9,6.86,6.86,0,0,0,2-1.67,3.4,3.4,0,0,0,.62-2.08,3.19,3.19,0,0,0-.86-2.33,3.3,3.3,0,0,0-2.47-.88,3.45,3.45,0,0,0-2.48.84A3.17,3.17,0,0,0,43.88,59.14Z"/><path d="M66,53.35a6.11,6.11,0,0,1,5.49,2.92q1.86,2.92,1.86,8.28c0,3.58-.62,6.34-1.86,8.3a6.61,6.61,0,0,1-11,0c-1.23-2-1.85-4.72-1.85-8.3s.62-6.33,1.85-8.28A6.11,6.11,0,0,1,66,53.35ZM66,56a3.11,3.11,0,0,0-2.86,2q-1,2-1,6.55a33.2,33.2,0,0,0,.21,4.09A9,9,0,0,0,63,71.28a3.14,3.14,0,0,0,1.2,1.41,3.43,3.43,0,0,0,1.78.43,2.87,2.87,0,0,0,2.11-.85,5.69,5.69,0,0,0,1.31-2.75,22.91,22.91,0,0,0,.44-5,26.19,26.19,0,0,0-.38-5.08,5,5,0,0,0-1.23-2.66A3.18,3.18,0,0,0,66,56Zm2.91.74.91,2.45L63.37,72.37l-1.16-2Z"/><path d="M80.34,53.35a4.18,4.18,0,0,1,4,2.46,5.74,5.74,0,0,1,.54,2.51,5.82,5.82,0,0,1-.54,2.53,4.32,4.32,0,0,1-1.55,1.8,4.86,4.86,0,0,1-4.89,0,4.23,4.23,0,0,1-1.57-1.8,5.82,5.82,0,0,1-.54-2.53,5.72,5.72,0,0,1,.54-2.5,4.26,4.26,0,0,1,4-2.47Zm9.89-.2,2,1.09L79,76.11,77,75Zm-9.89,2.3a1.53,1.53,0,0,0-1.34.72,3.87,3.87,0,0,0-.49,2.15A4,4,0,0,0,79,60.47a1.5,1.5,0,0,0,1.34.78,1.54,1.54,0,0,0,1.36-.72,4.15,4.15,0,0,0,.47-2.21,4,4,0,0,0-.47-2.19A1.55,1.55,0,0,0,80.34,55.45ZM89.23,65.6a4.16,4.16,0,0,1,4,2.45,6.15,6.15,0,0,1,0,5,4.42,4.42,0,0,1-1.54,1.8,4.81,4.81,0,0,1-4.9,0,4.4,4.4,0,0,1-1.56-1.8,6.13,6.13,0,0,1,0-5,4.33,4.33,0,0,1,1.56-1.8A4.42,4.42,0,0,1,89.23,65.6Zm0,2.08a1.54,1.54,0,0,0-1.35.72,3.94,3.94,0,0,0-.48,2.17,4.05,4.05,0,0,0,.48,2.15,1.52,1.52,0,0,0,1.35.78,1.54,1.54,0,0,0,1.35-.73,4.06,4.06,0,0,0,.48-2.2,3.9,3.9,0,0,0-.48-2.2A1.55,1.55,0,0,0,89.23,67.68Z"/><path class="cls-1" d="M104.66,41.78l3.93,6.39c5,12.16,5.69,16.23,4.67,29.18-3.23,13.51-6.93,23.83-25.46,35.18-14.52,6-21.31,6.57-36.48,2.94l-.45-.18c-10-4.14-21.34-8.84-30.31-30.48-3.62-15-2.23-20.68-.48-27.82l.18-.75L7.56,52.12C3.49,69.36,4.36,74.52,7.83,89c.69,1.63,1.26,3,1.72,4.16A39.46,39.46,0,0,0,14.09,102l2.46,4c12.64,14.77,18.86,17.33,29.16,21.58l1.47.6c1.73.4,3.2.77,4.39,1.06a39.79,39.79,0,0,0,9.87,1.57c1.22.08,2.73.19,4.66.35l2.56-.21c9.15-.69,11.61-.87,25.22-6.5,1.5-.94,2.79-1.72,3.84-2.35a39.07,39.07,0,0,0,8.09-5.89l3.55-3c19.36-22.7,22.64-43.31,11.19-71-1-1.62-1.77-2.89-2.39-3.92a39.94,39.94,0,0,0-5.88-8.09l-3-3.54c-12.11-10.33-16.37-13-33.72-17.13l-8.4-.65V22.21C77.82,23.07,89.92,24.51,104.66,41.78Z"/><polygon class="cls-1" points="64.88 8.83 64.88 8.88 56.48 9.49 64.88 8.83"/><path d="M65.43,8.83V22.22C56.4,23,46,24.07,34.09,34.79c-.88.79-1.76,1.63-2.66,2.53-1.34,1.34-2.71,2.83-4.09,4.46l-3.93,6.4c-.93,2.24-1.72,4.2-2.36,6L8.5,50.11c.84-2.57,1.83-5.23,2.95-7.93l2.39-3.94a40.85,40.85,0,0,1,5.87-8.09c.82-.92,1.81-2.06,3.06-3.53,12.11-10.33,16.37-13,33.72-17.13l8.39-.61Z"/><path d="M31.43,37.32c-1.34,1.36-2.71,2.83-4.09,4.46C28.72,40.15,30.09,38.66,31.43,37.32Z"/></svg>