<svg id="Camada_1" data-name="Camada 1" xmlns="http://www.w3.org/2000/svg" viewBox="0 0 132 140"><defs><style>.cls-1{fill:#ffd55f;}</style></defs><title>90GRAFICO</title><path d="M47,53.38a7.32,7.32,0,0,1,4.1,1.08,6.59,6.59,0,0,1,2.46,3,11.9,11.9,0,0,1,.82,4.63,18.67,18.67,0,0,1-.71,5.51,10,10,0,0,1-2.19,3.92,12.11,12.11,0,0,1-3.77,2.7,28.65,28.65,0,0,1-5.46,1.88l-.77-2.57a21.69,21.69,0,0,0,4.94-1.91,8.41,8.41,0,0,0,3.06-2.8,8.66,8.66,0,0,0,1.24-4.11l0-1.56a18.74,18.74,0,0,0-.34-4.13,4.22,4.22,0,0,0-1.19-2.3A3.29,3.29,0,0,0,47,56a3.38,3.38,0,0,0-2.76,1.17,5.43,5.43,0,0,0-1,3.52A4.72,4.72,0,0,0,44.17,64a3.32,3.32,0,0,0,2.51,1,4.22,4.22,0,0,0,2.47-.74,9.24,9.24,0,0,0,2.05-2.05l0,2.49a9.21,9.21,0,0,1-2.32,2.11,5.67,5.67,0,0,1-3,.8,6,6,0,0,1-3.16-.84,5.71,5.71,0,0,1-2.19-2.39,8,8,0,0,1-.8-3.67,7.64,7.64,0,0,1,1-4,6.54,6.54,0,0,1,2.63-2.51A7.87,7.87,0,0,1,47,53.38Z"/><path d="M66,53.35a6.11,6.11,0,0,1,5.49,2.92q1.86,2.92,1.86,8.28c0,3.58-.62,6.34-1.86,8.3a6.61,6.61,0,0,1-11,0c-1.23-2-1.85-4.72-1.85-8.3s.62-6.33,1.85-8.28A6.11,6.11,0,0,1,66,53.35ZM66,56a3.12,3.12,0,0,0-2.86,2q-1,2-1,6.55a33.2,33.2,0,0,0,.21,4.09A9,9,0,0,0,63,71.28a3.14,3.14,0,0,0,1.2,1.41,3.43,3.43,0,0,0,1.78.43,2.87,2.87,0,0,0,2.11-.85,5.6,5.6,0,0,0,1.31-2.75,22.3,22.3,0,0,0,.44-5,26.19,26.19,0,0,0-.38-5.08,4.9,4.9,0,0,0-1.23-2.66A3.18,3.18,0,0,0,66,56Zm2.91.74.91,2.45L63.37,72.37l-1.16-2Z"/><path d="M80.34,53.35a4.18,4.18,0,0,1,4,2.46,5.74,5.74,0,0,1,.54,2.51,5.82,5.82,0,0,1-.54,2.53,4.32,4.32,0,0,1-1.55,1.8,4.86,4.86,0,0,1-4.89,0,4.23,4.23,0,0,1-1.57-1.8,5.82,5.82,0,0,1-.54-2.53,5.72,5.72,0,0,1,.54-2.5,4.26,4.26,0,0,1,4-2.47Zm9.89-.2,2,1.09L79,76.11,77,75Zm-9.89,2.3a1.53,1.53,0,0,0-1.34.72,4,4,0,0,0-.49,2.15A4,4,0,0,0,79,60.47a1.5,1.5,0,0,0,1.34.78,1.54,1.54,0,0,0,1.36-.72,4.15,4.15,0,0,0,.47-2.21,4,4,0,0,0-.47-2.19A1.55,1.55,0,0,0,80.34,55.45ZM89.23,65.6a4.16,4.16,0,0,1,4,2.45,6.15,6.15,0,0,1,0,5,4.42,4.42,0,0,1-1.54,1.8,4.81,4.81,0,0,1-4.9,0,4.4,4.4,0,0,1-1.56-1.8,6.13,6.13,0,0,1,0-5,4.33,4.33,0,0,1,1.56-1.8A4.42,4.42,0,0,1,89.23,65.6Zm0,2.08a1.54,1.54,0,0,0-1.35.72,3.94,3.94,0,0,0-.48,2.17,4.05,4.05,0,0,0,.48,2.15,1.52,1.52,0,0,0,1.35.78,1.54,1.54,0,0,0,1.35-.73,4.06,4.06,0,0,0,.48-2.2,3.9,3.9,0,0,0-.48-2.2A1.55,1.55,0,0,0,89.23,67.68Z"/><path class="cls-1" d="M99.92,103.88C87.24,114.72,80.7,116.8,66.13,118l-.5,0c-10.8-.86-23-1.82-38.23-19.63-7.74-12.6-9.91-19.11-8.61-35.57,3.36-14.07,6.37-20.25,18.3-30.58l-5.06-7-2.8-3.86-2.67,2.25a39.82,39.82,0,0,0-7.07,7.08c-.79.93-1.76,2.09-3,3.56-.91,1.52-1.71,2.8-2.36,3.84A40,40,0,0,0,9.57,47c-.46,1.13-1,2.53-1.77,4.33-.4,1.71-.76,3.18-1,4.36a39,39,0,0,0-1.57,9.89c-.09,1.22-.2,2.73-.35,4.66l.77,9.58C6,81.5,6.37,83,6.65,84.16a39.41,39.41,0,0,0,3.09,9.52c.47,1.12,1.06,2.52,1.8,4.31l5,8.19L18,107.82c6.67,7.83,7.87,9.24,20.35,16.88l8.88,3.66,9.34,2.24c22.54,1.76,39.52-1.69,59.06-24.56l5-8.2,3.69-9c3.26-13.6,7-29-8.75-54.68-1.24-1.44-2.2-2.58-3-3.5a39.54,39.54,0,0,0-7.08-7.08c-.93-.78-2.08-1.75-3.55-3l-8.2-5C80.24,10,77.66,9.78,69.1,9.15l-2-.14V22.39C85.45,24,91.8,29.42,99.8,36.25,118.5,58.14,118.5,82.11,99.92,103.88Z"/><path d="M64.94,22.39V9C50.19,10.21,45.07,11.5,31,20L34,24.09l4.92,6.76C50.14,24,54.51,23.23,64.94,22.39Z"/><polygon points="31.01 20.04 33.95 24.09 31.01 20.04 31.01 20.04"/></svg>