<svg id="Camada_1" data-name="Camada 1" xmlns="http://www.w3.org/2000/svg" viewBox="0 0 132 100"><title>ASPAS</title><path d="M122.52,94.65c1.57.37,3.24-.53,4.77.38.84-.42,2.08-.5,1.72-2,.55-.61-.55-1.24,0-1.85.19-1.68-1.26-2.07-2.26-2.66-3.16-1.84-6.36-3.61-9.43-5.6-5.7-3.7-10.92-7.92-14.78-13.61-.24-.35-.49-.69-.71-1-1.29-2.14-1.14-2.57,1.34-2.92,9.72-1.36,16.9-6.51,22.15-14.58a25.8,25.8,0,0,0,4-11.36l0-1.3a16,16,0,0,1,0-5.94l0-.88c-.83-.48-.53-1.37-.66-2A30,30,0,0,0,96.76,5.09c-16,1.42-27.52,13.5-27.82,29.85A58.46,58.46,0,0,0,79.47,70.26c8.1,11.59,19.58,18.31,33,22.19A71.32,71.32,0,0,0,122.52,94.65Z"/><path d="M56.44,95l5.34-.75c1.6-2.15,1.43-3.42-.87-4.76-4.19-2.44-8.52-4.68-12.49-7.49-5.5-3.89-10.5-8.29-14-14.18-1.42-2.43-1.36-2.45,1.34-2.85C49,63,58,55.71,61.54,43.08A29.74,29.74,0,0,0,31.77,5C16.59,5.5,4.8,16.14,2.71,30.88V41.55c-.38,4.5.74,8.78,2.05,13,5.61,18.06,17.69,30,35.32,36.54A61.83,61.83,0,0,0,56.44,95Z"/></svg>