<svg id="Camada_1" data-name="Camada 1" xmlns="http://www.w3.org/2000/svg" viewBox="0 0 77 100"><title>certificados</title><path d="M66.91,83q-2.25-7.84-4.47-15.68c-.15-.54-.3-.66-.82-.4-1,.53-2.09,1-3.16,1.48A6.3,6.3,0,0,0,56.25,70c-1.77,2-3.62,3.92-5.4,5.89a3,3,0,0,1-3.07,1c-1.9-.38-3.8-.8-5.71-1.13-1.6-.27-3.15-.88-4.86-.48-2.55.61-5.15,1-7.73,1.57a3.21,3.21,0,0,1-3.38-1.06c-1-1.21-2.24-2.27-3.2-3.53a16.35,16.35,0,0,0-7.43-5.37c-.55-.21-.71-.2-.88.41Q11.86,77,9.07,86.62a2.78,2.78,0,0,0,3.82,3.54c2.86-1,5.75-2,8.6-3.07a1.07,1.07,0,0,1,1.46.44c1.79,2.29,3.63,4.53,5.43,6.82A4.66,4.66,0,0,0,30.43,96h1.26a2.56,2.56,0,0,0,2.14-2c.09-.28.18-.57.26-.86l4.14-14.48a4.69,4.69,0,0,1,.32-.93c.16.65.31,1.13.45,1.62,1.34,4.71,2.7,9.43,4,14.14.35,1.23.85,2.31,2.31,2.52h1.43a6.67,6.67,0,0,0,2.07-1.89c1.76-2.23,3.57-4.42,5.32-6.67a1,1,0,0,1,1.33-.35c2.88,1,5.79,2,8.68,3.09a2.82,2.82,0,0,0,3.1-.45A2.79,2.79,0,0,0,68,86.6C67.58,85.4,67.25,84.19,66.91,83Z"/><path d="M73.13,35.78c-1.41-2.36-2.7-4.79-4-7.19a2.62,2.62,0,0,1-.4-1c-.34-3-.73-5.94-1-8.91A3.06,3.06,0,0,0,65.76,16c-2.56-1.16-5.08-2.39-7.63-3.55a4.77,4.77,0,0,1-1.64-1.2C54.59,9.17,52.68,7.11,50.78,5a2.94,2.94,0,0,0-3-.94c-2.16.47-4.32.91-6.5,1.29a9.22,9.22,0,0,1-3.7.38c-2.75-.59-5.52-1.06-8.27-1.66a3,3,0,0,0-3.13,1c-1.89,2.09-3.82,4.14-5.71,6.22a4.42,4.42,0,0,1-1.5,1.1c-2.6,1.19-5.2,2.41-7.8,3.61a2.81,2.81,0,0,0-1.76,2.31c-.25,2.14-.55,4.28-.73,6.42a12.25,12.25,0,0,1-1.82,5.81c-1.14,1.79-2.06,3.7-3.13,5.54a3.11,3.11,0,0,0,0,3.38C5.18,42,6.56,44.56,8,47.09a2.82,2.82,0,0,1,.37,1c.33,2.92.73,5.82,1,8.74a3.23,3.23,0,0,0,2.06,2.88c2.58,1.16,5.14,2.39,7.72,3.57a3.63,3.63,0,0,1,1.21.88c1.94,2.13,3.92,4.22,5.83,6.36a3,3,0,0,0,3.06,1c1.94-.38,3.86-.8,5.81-1.14,1.37-.23,2.71-.82,4.14-.58s2.58.53,3.87.78c1.85.37,3.7.72,5.16,1a3,3,0,0,0,2.64-1.1c1.92-2.1,3.86-4.18,5.78-6.28a3.76,3.76,0,0,1,1.28-.95c2.6-1.18,5.19-2.41,7.8-3.61a2.9,2.9,0,0,0,1.89-2.31c.26-2.08.56-4.16.72-6.24A12.5,12.5,0,0,1,70.18,45c1.09-1.67,1.92-3.51,3-5.22A3.54,3.54,0,0,0,73.13,35.78ZM38.51,57.2A19.41,19.41,0,1,1,57.88,37.86,19.42,19.42,0,0,1,38.51,57.2Z"/><path d="M38.56,23.78A14,14,0,1,0,52.49,37.85,14,14,0,0,0,38.56,23.78Zm6.71,13L38.92,43.1a2.73,2.73,0,0,1-4.25,0c-1-1-2-2-3-3a2.7,2.7,0,1,1,3.82-3.79c.43.42.82.86,1.26,1.33,1.62-1.62,3.15-3.18,4.7-4.72a2.71,2.71,0,1,1,3.8,3.81Z"/></svg>