<svg id="Camada_1" data-name="Camada 1" xmlns="http://www.w3.org/2000/svg" viewBox="0 0 112 100"><title>Email</title><path d="M103,79c-.44.58-.38,1.37-.86,2-.22-.2-.44-.4-.66-.62Q86.68,65.57,71.82,50.74c-.59-.59-.6-.88,0-1.47q14.88-14.82,29.7-29.67c.21-.21.44-.41.66-.62.5.68.49,1.5.86,2.18Z"/><path d="M13.74,15a7.93,7.93,0,0,1,3.59-.83H94.65a8.54,8.54,0,0,1,3.59.81,2.27,2.27,0,0,1-.29.37C84.15,29,70.62,43,56.57,56.43c-.59.56-.89.58-1.48,0Q34.75,36,14.39,15.69C14.17,15.48,14,15.25,13.74,15Z"/><path d="M98.25,85a8,8,0,0,1-3.58.83H17.35A8.26,8.26,0,0,1,13.8,85c.09-.33.36-.49.57-.7Q29.24,69.45,44.1,54.57c.58-.58.85-.56,1.4,0,2.63,2.69,5.31,5.34,8,8,1.61,1.61,3,1.61,4.67,0q4.27-4.1,8.54-8.21c.38-.38.59-.44,1,0Q82.84,69.55,98,84.71C98.07,84.77,98.12,84.85,98.25,85Z"/><path d="M9.8,81.05A8.1,8.1,0,0,1,9,77.38V22.66A8.35,8.35,0,0,1,9.76,19c.36.07.53.39.76.61Q25.33,34.44,40.14,49.22c.59.59.69.88,0,1.53Q25.31,65.55,10.49,80.4C10.28,80.62,10.05,80.82,9.8,81.05Z"/></svg>