<svg id="Camada_1" data-name="Camada 1" xmlns="http://www.w3.org/2000/svg" xmlns:xlink="http://www.w3.org/1999/xlink" viewBox="0 0 1000 400"><defs><style>.cls-1{fill:none;}.cls-2{opacity:0.38;}.cls-3{clip-path:url(#clip-path);}.cls-4{opacity:0.05;}.cls-5{fill:#fff;}</style><clipPath id="clip-path"><rect class="cls-1" y="1.5" width="1000" height="397"/></clipPath></defs><title>fundo</title><g class="cls-2"><g class="cls-3"><g class="cls-4"><rect x="-164.3" y="-32.31" width="10.27" height="996" transform="translate(-216.29 -23.12) rotate(-25.54)"/></g><g class="cls-4"><rect class="cls-5" x="-155.03" y="-36.74" width="10.27" height="996" transform="translate(-213.48 -19.56) rotate(-25.54)"/></g><g class="cls-4"><rect x="-145.77" y="-41.16" width="10.27" height="996" transform="translate(-210.67 -16) rotate(-25.54)"/></g><g class="cls-4"><rect class="cls-5" x="-136.5" y="-45.59" width="10.27" height="996" transform="translate(-207.85 -12.44) rotate(-25.54)"/></g><g class="cls-4"><rect x="-127.23" y="-50.02" width="10.27" height="996" transform="translate(-205.04 -8.87) rotate(-25.54)"/></g><g class="cls-4"><rect class="cls-5" x="-117.97" y="-54.45" width="10.27" height="996" transform="translate(-202.22 -5.31) rotate(-25.54)"/></g><g class="cls-4"><rect x="-108.7" y="-58.87" width="10.27" height="996" transform="translate(-199.41 -1.75) rotate(-25.54)"/></g><g class="cls-4"><rect class="cls-5" x="-99.43" y="-63.3" width="10.27" height="996" transform="translate(-196.6 1.81) rotate(-25.54)"/></g><g class="cls-4"><rect x="-90.17" y="-67.73" width="10.27" height="996" transform="translate(-193.78 5.37) rotate(-25.54)"/></g><g class="cls-4"><rect class="cls-5" x="-80.9" y="-72.15" width="10.27" height="996" transform="translate(-190.97 8.94) rotate(-25.54)"/></g><g class="cls-4"><rect x="-71.63" y="-76.58" width="10.27" height="996" transform="translate(-188.16 12.5) rotate(-25.54)"/></g><g class="cls-4"><rect class="cls-5" x="-62.37" y="-81.01" width="10.27" height="996" transform="translate(-185.34 16.06) rotate(-25.54)"/></g><g class="cls-4"><rect x="-53.1" y="-85.44" width="10.27" height="996" transform="translate(-182.53 19.62) rotate(-25.54)"/></g><g class="cls-4"><rect class="cls-5" x="-43.83" y="-89.86" width="10.27" height="996" transform="translate(-179.72 23.19) rotate(-25.54)"/></g><g class="cls-4"><rect x="-34.57" y="-94.29" width="10.27" height="996" transform="translate(-176.9 26.75) rotate(-25.54)"/></g><g class="cls-4"><rect class="cls-5" x="-25.3" y="-98.72" width="10.27" height="996" transform="translate(-174.09 30.31) rotate(-25.54)"/></g><g class="cls-4"><rect x="-16.03" y="-103.14" width="10.27" height="996" transform="translate(-171.28 33.87) rotate(-25.54)"/></g><g class="cls-4"><rect class="cls-5" x="-6.77" y="-107.57" width="10.27" height="996" transform="translate(-168.46 37.43) rotate(-25.54)"/></g><g class="cls-4"><rect x="2.5" y="-112" width="10.27" height="996" transform="translate(-165.65 41) rotate(-25.54)"/></g><g class="cls-4"><rect class="cls-5" x="11.77" y="-116.42" width="10.27" height="996" transform="translate(-162.84 44.56) rotate(-25.54)"/></g><g class="cls-4"><rect x="21.03" y="-120.85" width="10.27" height="996" transform="translate(-160.02 48.12) rotate(-25.54)"/></g><g class="cls-4"><rect class="cls-5" x="30.3" y="-125.28" width="10.27" height="996" transform="translate(-157.21 51.68) rotate(-25.54)"/></g><g class="cls-4"><rect x="39.57" y="-129.71" width="10.27" height="996" transform="translate(-154.39 55.24) rotate(-25.54)"/></g><g class="cls-4"><rect class="cls-5" x="48.83" y="-134.13" width="10.27" height="996" transform="translate(-151.58 58.81) rotate(-25.54)"/></g><g class="cls-4"><rect x="58.1" y="-138.56" width="10.27" height="996" transform="translate(-148.77 62.37) rotate(-25.54)"/></g><g class="cls-4"><rect class="cls-5" x="67.37" y="-142.99" width="10.27" height="996" transform="translate(-145.95 65.93) rotate(-25.54)"/></g><g class="cls-4"><rect x="76.63" y="-147.41" width="10.27" height="996" transform="translate(-143.14 69.49) rotate(-25.54)"/></g><g class="cls-4"><rect class="cls-5" x="85.9" y="-151.84" width="10.27" height="996" transform="translate(-140.33 73.06) rotate(-25.54)"/></g><g class="cls-4"><rect x="95.17" y="-156.27" width="10.27" height="996" transform="translate(-137.51 76.62) rotate(-25.54)"/></g><g class="cls-4"><rect class="cls-5" x="104.43" y="-160.69" width="10.27" height="996" transform="translate(-134.7 80.18) rotate(-25.54)"/></g><g class="cls-4"><rect x="113.7" y="-165.12" width="10.27" height="996" transform="translate(-131.89 83.74) rotate(-25.54)"/></g><g class="cls-4"><rect class="cls-5" x="122.97" y="-169.55" width="10.27" height="996" transform="translate(-129.07 87.3) rotate(-25.54)"/></g><g class="cls-4"><rect x="132.23" y="-173.98" width="10.27" height="996" transform="translate(-126.26 90.87) rotate(-25.54)"/></g><g class="cls-4"><rect class="cls-5" x="141.5" y="-178.4" width="10.27" height="996" transform="translate(-123.45 94.43) rotate(-25.54)"/></g><g class="cls-4"><rect x="150.77" y="-182.83" width="10.27" height="996" transform="translate(-120.63 97.99) rotate(-25.54)"/></g><g class="cls-4"><rect class="cls-5" x="160.03" y="-187.26" width="10.27" height="996" transform="translate(-117.82 101.55) rotate(-25.54)"/></g><g class="cls-4"><rect x="169.3" y="-191.68" width="10.27" height="996" transform="translate(-115 105.11) rotate(-25.54)"/></g><g class="cls-4"><rect class="cls-5" x="178.57" y="-196.11" width="10.27" height="996" transform="translate(-112.19 108.68) rotate(-25.54)"/></g><g class="cls-4"><rect x="187.83" y="-200.54" width="10.27" height="996" transform="translate(-109.38 112.24) rotate(-25.54)"/></g><g class="cls-4"><rect class="cls-5" x="197.1" y="-204.96" width="10.27" height="996" transform="translate(-106.56 115.8) rotate(-25.54)"/></g><g class="cls-4"><rect x="206.37" y="-209.39" width="10.27" height="996" transform="translate(-103.75 119.36) rotate(-25.54)"/></g><g class="cls-4"><rect class="cls-5" x="215.63" y="-213.82" width="10.27" height="996" transform="translate(-100.94 122.93) rotate(-25.54)"/></g><g class="cls-4"><rect x="224.9" y="-218.25" width="10.27" height="996" transform="translate(-98.12 126.49) rotate(-25.54)"/></g><g class="cls-4"><rect class="cls-5" x="234.17" y="-222.67" width="10.27" height="996" transform="translate(-95.31 130.05) rotate(-25.54)"/></g><g class="cls-4"><rect x="243.43" y="-227.1" width="10.27" height="996" transform="translate(-92.5 133.61) rotate(-25.54)"/></g><g class="cls-4"><rect class="cls-5" x="252.7" y="-231.53" width="10.27" height="996" transform="translate(-89.68 137.17) rotate(-25.54)"/></g><g class="cls-4"><rect x="261.97" y="-235.95" width="10.27" height="996" transform="translate(-86.87 140.74) rotate(-25.54)"/></g><g class="cls-4"><rect class="cls-5" x="271.23" y="-240.38" width="10.27" height="996" transform="translate(-84.06 144.3) rotate(-25.54)"/></g><g class="cls-4"><rect x="280.5" y="-244.81" width="10.27" height="996" transform="translate(-81.24 147.86) rotate(-25.54)"/></g><g class="cls-4"><rect class="cls-5" x="289.77" y="-249.24" width="10.27" height="996" transform="translate(-78.43 151.42) rotate(-25.54)"/></g><g class="cls-4"><rect x="299.03" y="-253.66" width="10.27" height="996" transform="translate(-75.62 154.98) rotate(-25.54)"/></g><g class="cls-4"><rect class="cls-5" x="308.3" y="-258.09" width="10.27" height="996" transform="translate(-72.8 158.55) rotate(-25.54)"/></g><g class="cls-4"><rect x="317.57" y="-262.52" width="10.27" height="996" transform="translate(-69.99 162.11) rotate(-25.54)"/></g><g class="cls-4"><rect class="cls-5" x="326.83" y="-266.94" width="10.27" height="996" transform="translate(-67.17 165.67) rotate(-25.54)"/></g><g class="cls-4"><rect x="336.1" y="-271.37" width="10.27" height="996" transform="translate(-64.36 169.23) rotate(-25.54)"/></g><g class="cls-4"><rect class="cls-5" x="345.37" y="-275.8" width="10.27" height="996" transform="translate(-61.55 172.8) rotate(-25.54)"/></g><g class="cls-4"><rect x="354.63" y="-280.22" width="10.27" height="996" transform="translate(-58.73 176.36) rotate(-25.54)"/></g><g class="cls-4"><rect class="cls-5" x="363.9" y="-284.65" width="10.27" height="996" transform="translate(-55.92 179.92) rotate(-25.54)"/></g><g class="cls-4"><rect x="373.17" y="-289.08" width="10.27" height="996" transform="translate(-53.11 183.48) rotate(-25.54)"/></g><g class="cls-4"><rect class="cls-5" x="382.43" y="-293.51" width="10.27" height="996" transform="translate(-50.29 187.04) rotate(-25.54)"/></g><g class="cls-4"><rect x="391.7" y="-297.93" width="10.27" height="996" transform="translate(-47.48 190.61) rotate(-25.54)"/></g><g class="cls-4"><rect class="cls-5" x="400.97" y="-302.36" width="10.27" height="996" transform="translate(-44.67 194.17) rotate(-25.54)"/></g><g class="cls-4"><rect x="410.23" y="-306.79" width="10.27" height="996" transform="translate(-41.85 197.73) rotate(-25.54)"/></g><g class="cls-4"><rect class="cls-5" x="419.5" y="-311.21" width="10.27" height="996" transform="translate(-39.04 201.29) rotate(-25.54)"/></g><g class="cls-4"><rect x="428.77" y="-315.64" width="10.27" height="996" transform="translate(-36.23 204.85) rotate(-25.54)"/></g><g class="cls-4"><rect class="cls-5" x="438.03" y="-320.07" width="10.27" height="996" transform="translate(-33.41 208.42) rotate(-25.54)"/></g><g class="cls-4"><rect x="447.3" y="-324.49" width="10.27" height="996" transform="translate(-30.6 211.98) rotate(-25.54)"/></g><g class="cls-4"><rect class="cls-5" x="456.57" y="-328.92" width="10.27" height="996" transform="translate(-27.79 215.54) rotate(-25.54)"/></g><g class="cls-4"><rect x="465.83" y="-333.35" width="10.27" height="996" transform="translate(-24.97 219.1) rotate(-25.54)"/></g><g class="cls-4"><rect class="cls-5" x="475.1" y="-337.78" width="10.27" height="996" transform="translate(-22.16 222.67) rotate(-25.54)"/></g><g class="cls-4"><rect x="484.37" y="-342.2" width="10.27" height="996" transform="translate(-19.34 226.23) rotate(-25.54)"/></g><g class="cls-4"><rect class="cls-5" x="493.63" y="-346.63" width="10.27" height="996" transform="translate(-16.53 229.79) rotate(-25.54)"/></g><g class="cls-4"><rect x="502.9" y="-351.06" width="10.27" height="996" transform="translate(-13.72 233.35) rotate(-25.54)"/></g><g class="cls-4"><rect class="cls-5" x="512.17" y="-355.48" width="10.27" height="996" transform="translate(-10.9 236.91) rotate(-25.54)"/></g><g class="cls-4"><rect x="521.43" y="-359.91" width="10.27" height="996" transform="translate(-8.09 240.48) rotate(-25.54)"/></g><g class="cls-4"><rect class="cls-5" x="530.7" y="-364.34" width="10.27" height="996" transform="translate(-5.28 244.04) rotate(-25.54)"/></g><g class="cls-4"><rect x="539.97" y="-368.76" width="10.27" height="996" transform="translate(-2.46 247.6) rotate(-25.54)"/></g><g class="cls-4"><rect class="cls-5" x="549.23" y="-373.19" width="10.27" height="996" transform="translate(0.35 251.16) rotate(-25.54)"/></g><g class="cls-4"><rect x="558.5" y="-377.62" width="10.27" height="996" transform="translate(3.16 254.72) rotate(-25.54)"/></g><g class="cls-4"><rect class="cls-5" x="567.77" y="-382.05" width="10.27" height="996" transform="translate(5.98 258.29) rotate(-25.54)"/></g><g class="cls-4"><rect x="577.03" y="-386.47" width="10.27" height="996" transform="translate(8.79 261.85) rotate(-25.54)"/></g><g class="cls-4"><rect class="cls-5" x="586.3" y="-390.9" width="10.27" height="996" transform="translate(11.6 265.41) rotate(-25.54)"/></g><g class="cls-4"><rect x="595.57" y="-395.33" width="10.27" height="996" transform="translate(14.42 268.97) rotate(-25.54)"/></g><g class="cls-4"><rect class="cls-5" x="604.83" y="-399.75" width="10.27" height="996" transform="translate(17.23 272.54) rotate(-25.54)"/></g><g class="cls-4"><rect x="614.1" y="-404.18" width="10.27" height="996" transform="translate(20.05 276.1) rotate(-25.54)"/></g><g class="cls-4"><rect class="cls-5" x="623.37" y="-408.61" width="10.27" height="996" transform="translate(22.86 279.66) rotate(-25.54)"/></g><g class="cls-4"><rect x="632.63" y="-413.04" width="10.27" height="996" transform="translate(25.67 283.22) rotate(-25.54)"/></g><g class="cls-4"><rect class="cls-5" x="641.9" y="-417.46" width="10.27" height="996" transform="translate(28.49 286.78) rotate(-25.54)"/></g><g class="cls-4"><rect x="651.17" y="-421.89" width="10.27" height="996" transform="translate(31.3 290.35) rotate(-25.54)"/></g><g class="cls-4"><rect class="cls-5" x="660.43" y="-426.32" width="10.27" height="996" transform="translate(34.11 293.91) rotate(-25.54)"/></g><g class="cls-4"><rect x="669.7" y="-430.74" width="10.27" height="996" transform="translate(36.93 297.47) rotate(-25.54)"/></g><g class="cls-4"><rect class="cls-5" x="678.97" y="-435.17" width="10.27" height="996" transform="translate(39.74 301.03) rotate(-25.54)"/></g><g class="cls-4"><rect x="688.23" y="-439.6" width="10.27" height="996" transform="translate(42.55 304.59) rotate(-25.54)"/></g><g class="cls-4"><rect class="cls-5" x="697.5" y="-444.02" width="10.27" height="996" transform="translate(45.37 308.16) rotate(-25.54)"/></g><g class="cls-4"><rect x="706.77" y="-448.45" width="10.27" height="996" transform="translate(48.18 311.72) rotate(-25.54)"/></g><g class="cls-4"><rect class="cls-5" x="716.03" y="-452.88" width="10.27" height="996" transform="translate(50.99 315.28) rotate(-25.54)"/></g><g class="cls-4"><rect x="725.3" y="-457.31" width="10.27" height="996" transform="translate(53.81 318.84) rotate(-25.54)"/></g><g class="cls-4"><rect class="cls-5" x="734.57" y="-461.73" width="10.27" height="996" transform="translate(56.62 322.41) rotate(-25.54)"/></g><g class="cls-4"><rect x="743.83" y="-466.16" width="10.27" height="996" transform="translate(59.43 325.97) rotate(-25.54)"/></g><g class="cls-4"><rect class="cls-5" x="753.1" y="-470.59" width="10.27" height="996" transform="translate(62.25 329.53) rotate(-25.54)"/></g><g class="cls-4"><rect x="762.37" y="-475.01" width="10.27" height="996" transform="translate(65.06 333.09) rotate(-25.54)"/></g><g class="cls-4"><rect class="cls-5" x="771.63" y="-479.44" width="10.27" height="996" transform="translate(67.88 336.65) rotate(-25.54)"/></g><g class="cls-4"><rect x="780.9" y="-483.87" width="10.27" height="996" transform="translate(70.69 340.22) rotate(-25.54)"/></g><g class="cls-4"><rect class="cls-5" x="790.17" y="-488.29" width="10.27" height="996" transform="translate(73.5 343.78) rotate(-25.54)"/></g><g class="cls-4"><rect x="799.43" y="-492.72" width="10.27" height="996" transform="translate(76.32 347.34) rotate(-25.54)"/></g><g class="cls-4"><rect class="cls-5" x="808.7" y="-497.15" width="10.27" height="996" transform="translate(79.13 350.9) rotate(-25.54)"/></g><g class="cls-4"><rect x="817.96" y="-501.58" width="10.27" height="996" transform="translate(81.94 354.46) rotate(-25.54)"/></g><g class="cls-4"><rect class="cls-5" x="827.23" y="-506" width="10.27" height="996" transform="translate(84.76 358.03) rotate(-25.54)"/></g><g class="cls-4"><rect x="836.5" y="-510.43" width="10.27" height="996" transform="translate(87.57 361.59) rotate(-25.54)"/></g><g class="cls-4"><rect class="cls-5" x="845.76" y="-514.86" width="10.27" height="996" transform="translate(90.38 365.15) rotate(-25.54)"/></g><g class="cls-4"><rect x="855.03" y="-519.28" width="10.27" height="996" transform="translate(93.2 368.71) rotate(-25.54)"/></g><g class="cls-4"><rect class="cls-5" x="864.3" y="-523.71" width="10.27" height="996" transform="translate(96.01 372.28) rotate(-25.54)"/></g><g class="cls-4"><rect x="873.56" y="-528.14" width="10.27" height="996" transform="translate(98.82 375.84) rotate(-25.54)"/></g><g class="cls-4"><rect class="cls-5" x="882.83" y="-532.56" width="10.27" height="996" transform="translate(101.64 379.4) rotate(-25.54)"/></g><g class="cls-4"><rect x="892.1" y="-536.99" width="10.27" height="996" transform="translate(104.45 382.96) rotate(-25.54)"/></g><g class="cls-4"><rect class="cls-5" x="901.36" y="-541.42" width="10.27" height="996" transform="translate(107.27 386.52) rotate(-25.54)"/></g><g class="cls-4"><rect x="910.63" y="-545.85" width="10.27" height="996" transform="translate(110.08 390.09) rotate(-25.54)"/></g><g class="cls-4"><rect class="cls-5" x="919.9" y="-550.27" width="10.27" height="996" transform="translate(112.89 393.65) rotate(-25.54)"/></g><g class="cls-4"><rect x="929.16" y="-554.7" width="10.27" height="996" transform="translate(115.71 397.21) rotate(-25.54)"/></g><g class="cls-4"><rect class="cls-5" x="938.43" y="-559.13" width="10.27" height="996" transform="translate(118.52 400.77) rotate(-25.54)"/></g><g class="cls-4"><rect x="947.7" y="-563.55" width="10.27" height="996" transform="translate(121.33 404.33) rotate(-25.54)"/></g><g class="cls-4"><rect class="cls-5" x="956.96" y="-567.98" width="10.27" height="996" transform="translate(124.15 407.9) rotate(-25.54)"/></g><g class="cls-4"><rect x="966.23" y="-572.41" width="10.27" height="996" transform="translate(126.96 411.46) rotate(-25.54)"/></g><g class="cls-4"><rect class="cls-5" x="975.5" y="-576.84" width="10.27" height="996" transform="translate(129.77 415.02) rotate(-25.54)"/></g><g class="cls-4"><rect x="984.76" y="-581.26" width="10.27" height="996" transform="translate(132.59 418.58) rotate(-25.54)"/></g><g class="cls-4"><rect class="cls-5" x="994.03" y="-585.69" width="10.27" height="996" transform="translate(135.4 422.15) rotate(-25.54)"/></g></g></g></svg>