<svg id="Camada_1" data-name="Camada 1" xmlns="http://www.w3.org/2000/svg" viewBox="0 0 112 100"><title>GitHub</title><path d="M65.44,73.07a40.61,40.61,0,0,0,7-1.92C78.86,68.63,83.82,64.52,86,57.73c2.44-7.69,1.52-14.93-3.5-21.45a1.49,1.49,0,0,1-.24-1.47,18.44,18.44,0,0,0-.48-11,1.25,1.25,0,0,0-1.46-1,20.11,20.11,0,0,0-10.45,3.74,4.75,4.75,0,0,1-3.87.74,50.59,50.59,0,0,0-21.6.26A1.55,1.55,0,0,1,43,27.15,25.8,25.8,0,0,0,33.8,23c-3.26-.64-3.8-.28-4.47,2.94a17.82,17.82,0,0,0,.44,9.39,1.06,1.06,0,0,1-.2,1.15C19.85,48.78,25,66.09,39.86,71.4a40.27,40.27,0,0,0,6.72,1.67A16.18,16.18,0,0,0,43,79.26a.71.71,0,0,1-.64.5,15,15,0,0,1-6.87,0,7.44,7.44,0,0,1-4.32-3.24,19.12,19.12,0,0,0-4.47-5.1,5.56,5.56,0,0,0-5.38-1.08c-1.06.37-1.22,1.1-.35,1.82s1.87,1.35,2.79,2a6.8,6.8,0,0,1,2.55,3.4c2,6.73,6.71,8.94,13.29,8.79.82,0,1.94-.4,2.39,0s.16,1.63.17,2.48c0,2.09,0,4.18,0,6.28,0,1.9-.59,2.33-2.4,1.69A47.16,47.16,0,0,1,23.4,87.12C12.22,76.8,6.58,64,7.57,48.81,8.86,29,19,14.79,37.06,6.72c21.28-9.49,46.82-1.57,59.48,18a48.4,48.4,0,0,1-24.61,72.4c-1.56.56-2.38,0-2.4-1.63,0-3.71,0-7.43,0-11.14C69.51,79.3,68.71,77.05,65.44,73.07Z"/></svg>