<svg id="Camada_1" data-name="Camada 1" xmlns="http://www.w3.org/2000/svg" viewBox="0 0 112 100"><defs><style>.cls-1{fill:#fefefe;}</style></defs><title>LinkedIn</title><path d="M14.35,50c0-8.58,0-17.17,0-25.75a15.55,15.55,0,0,1,6.49-12.92A14.49,14.49,0,0,1,30,8.24c17.34,0,34.68,0,52,0A16,16,0,0,1,97.39,21a17.58,17.58,0,0,1,.27,2.9q0,26.23,0,52.48a15,15,0,0,1-5.42,11.43,15.12,15.12,0,0,1-10.45,3.93c-17.17,0-34.34-.08-51.51,0A16.15,16.15,0,0,1,14.64,79.16a20.31,20.31,0,0,1-.29-3.57Z"/><path class="cls-1" d="M59.22,45.57A15.52,15.52,0,0,1,61.27,43a12.66,12.66,0,0,1,9.87-3.47,14,14,0,0,1,7.45,2.36A13.51,13.51,0,0,1,83.92,50,23.21,23.21,0,0,1,84.64,56c0,7.16,0,14.33,0,21.5,0,.46-.15.51-.55.51-3.7,0-7.41,0-11.11,0-.45,0-.59-.09-.59-.57,0-6.42,0-12.84,0-19.25a16.63,16.63,0,0,0-.54-4.71c-1-3.3-3.34-4.46-6.42-4.2-2.93.25-4.68,2.1-5.82,4.61a8.15,8.15,0,0,0-.43,3.38c0,6.77,0,13.55,0,20.32,0,.5-.13.62-.62.62-3.75,0-7.51,0-11.26,0-.47,0-.59-.1-.59-.58.1-10.36.2-20.72.14-31.08,0-1.91-.06-3.82-.12-5.73,0-.29.11-.3.33-.3h2.66c3,0,6,0,9,0,.41,0,.5.12.49.51,0,1.31,0,2.63,0,3.94Z"/><path class="cls-1" d="M27.17,59.14c0-6.11,0-12.22,0-18.33,0-.43.09-.53.52-.53q5.71,0,11.42,0c.41,0,.5.11.5.5q0,18.33,0,36.67c0,.41-.08.54-.52.53q-5.71,0-11.42,0c-.42,0-.5-.12-.5-.51C27.18,71.36,27.17,65.25,27.17,59.14Z"/><path class="cls-1" d="M33.55,22.27a6.56,6.56,0,0,1,6.77,4.79,6.3,6.3,0,0,1-5.73,8.13,7.7,7.7,0,0,1-5.28-1.3,6.32,6.32,0,0,1-2.69-6.13,6.17,6.17,0,0,1,5.95-5.49C32.9,22.25,33.22,22.27,33.55,22.27Z"/></svg>