<svg id="Camada_1" data-name="Camada 1" xmlns="http://www.w3.org/2000/svg" viewBox="0 0 112 100"><defs><style>.cls-1{fill:#fefefe;}</style></defs><title>Mapa</title><path d="M89,34.87a32.33,32.33,0,0,1-3,12,109.08,109.08,0,0,1-23.47,35,19.6,19.6,0,0,1-4.43,3.34,4.1,4.1,0,0,1-4.27,0,26.75,26.75,0,0,1-6.61-5.46A111.5,111.5,0,0,1,25.6,46.05,30.81,30.81,0,0,1,23,33.72,33,33,0,0,1,86.79,23,33.6,33.6,0,0,1,89,34.87Z"/><path d="M42.93,81.7A46.31,46.31,0,0,0,37,83.58a5.87,5.87,0,0,0-1.7,1,1.23,1.23,0,0,0,0,2.13,12.39,12.39,0,0,0,4,2.15,49,49,0,0,0,17.45,2.54A44.79,44.79,0,0,0,73.7,88.25a13.61,13.61,0,0,0,2.86-1.54c1-.71,1-1.1,0-1.85a18.17,18.17,0,0,0-6-2.72l-1.51-.43c1.62-1.75,3.13-3.43,4.51-5.23a.62.62,0,0,1,.83-.19,18.78,18.78,0,0,1,7.25,4.27,7.22,7.22,0,0,1,0,10.59,19.06,19.06,0,0,1-8.35,4.63A61.2,61.2,0,0,1,51,98a47.93,47.93,0,0,1-14.63-3,18,18,0,0,1-5.73-3.42c-3.6-3.35-3.63-7.94-.07-11.33a19.31,19.31,0,0,1,7-4,.63.63,0,0,1,.81.23A66.34,66.34,0,0,0,42.93,81.7Z"/><path class="cls-1" d="M56,50.44A15.68,15.68,0,1,1,71.7,35,15.69,15.69,0,0,1,56,50.44Z"/></svg>