<svg id="Camada_1" data-name="Camada 1" xmlns="http://www.w3.org/2000/svg" viewBox="0 0 112 100"><defs><style>.cls-1{fill:#fff;}</style></defs><title>WhatsApp</title><path d="M11,50A45,45,0,1,1,56,95,45.06,45.06,0,0,1,11,50Z"/><path class="cls-1" d="M30.18,76c.08-.31.13-.54.19-.76,1.11-4,2.2-8,3.32-12.08a1.17,1.17,0,0,0-.13-1A24.83,24.83,0,0,1,31.14,56a25.83,25.83,0,0,1,5.68-23.22A25.24,25.24,0,0,1,51,24.55a25.72,25.72,0,0,1,23.29,7,25.71,25.71,0,0,1,.53,35.89,25.67,25.67,0,0,1-30.52,5.19,1.29,1.29,0,0,0-1-.11c-4.16,1.11-8.33,2.2-12.5,3.3Z"/><path d="M36.45,69.79a1,1,0,0,1,0-.47c.63-2.3,1.24-4.59,1.89-6.88a1,1,0,0,0-.15-.94,21.15,21.15,0,0,1-2.7-5.92,20.81,20.81,0,0,1-.75-7.36A21.41,21.41,0,0,1,49,29.62a21.13,21.13,0,0,1,7.59-1.23A21.35,21.35,0,0,1,74.91,39.61a20.49,20.49,0,0,1,2.44,8A21.35,21.35,0,0,1,53.41,71a21.53,21.53,0,0,1-8.26-2.86,2.34,2.34,0,0,0-.74-.37,2.11,2.11,0,0,0-.75.16l-6.77,1.77Z"/><path class="cls-1" d="M62.91,62.94a9,9,0,0,1-3-.56,36,36,0,0,1-4.78-2,21,21,0,0,1-5.55-4.23,32,32,0,0,1-3.94-5l-.81-1.26a13.54,13.54,0,0,1-2-4.66,7.55,7.55,0,0,1,2.06-7.06,3.41,3.41,0,0,1,3.09-1,2.09,2.09,0,0,1,1.86,1.46c.5,1.41,1,2.81,1.55,4.22l.28.72a1.26,1.26,0,0,1-.08,1.15,4.67,4.67,0,0,1-.66.92c-.26.28-.53.55-.77.84a6.48,6.48,0,0,0-.53.73,1,1,0,0,0,0,1.13,24.7,24.7,0,0,0,1.59,2.47,17.12,17.12,0,0,0,5.39,4.77c.36.21.72.42,1.09.62a3.57,3.57,0,0,0,.88.37,1.18,1.18,0,0,0,1.3-.36c.68-.76,1.38-1.5,2-2.3.48-.62.77-.71,1.49-.42a7.43,7.43,0,0,1,.76.35l4.39,2.33c.09,0,.17.11.26.15a.87.87,0,0,1,.49.88A7.47,7.47,0,0,1,68.64,60a2.41,2.41,0,0,1-.57.77A7.36,7.36,0,0,1,62.91,62.94Z"/></svg>